<?xml version="1.0" encoding="UTF-8" standalone="no" ?>
<!DOCTYPE svg PUBLIC "-//W3C//DTD SVG 1.1//EN" "http://www.w3.org/Graphics/SVG/1.1/DTD/svg11.dtd">
<svg xmlns="http://www.w3.org/2000/svg" xmlns:xlink="http://www.w3.org/1999/xlink" version="1.1" width="1080" height="1080" viewBox="0 0 1080 1080" xml:space="preserve">
<desc>Created with Fabric.js 4.2.0</desc>
<defs>
</defs>
<g transform="matrix(1 0 0 1 540 540)" id="3ef34780-f9fd-4775-a950-7bc19867c9d7"  >
<rect style="stroke: none; stroke-width: 1; stroke-dasharray: none; stroke-linecap: butt; stroke-dashoffset: 0; stroke-linejoin: miter; stroke-miterlimit: 4; fill: rgb(45,2,73); fill-opacity: 0; fill-rule: nonzero; opacity: 1;" vector-effect="non-scaling-stroke"  x="-540" y="-540" rx="0" ry="0" width="1080" height="1080" />
</g>
<g transform="matrix(1 0 0 1 540 540)" id="40b75141-5767-45f7-8099-eb0e9e7864eb"  >
</g>
<g transform="matrix(5.06 0 0 5.77 303.11 463.13)" id="f23fbb1f-290b-439c-be80-a7e416d78afe"  >
<rect style="stroke: rgb(0,0,0); stroke-width: 0; stroke-dasharray: none; stroke-linecap: butt; stroke-dashoffset: 0; stroke-linejoin: miter; stroke-miterlimit: 4; fill: rgb(67,3,90); fill-opacity: 0.51; fill-rule: nonzero; opacity: 1;" vector-effect="non-scaling-stroke"  x="-37.46" y="-19.415" rx="0" ry="0" width="74.92" height="38.83" />
</g>
<g transform="matrix(6.51 0 0 6.51 297.24 539.85)"  >
<g style="" vector-effect="non-scaling-stroke"   >
		<g transform="matrix(1 0 0 1 0 -12.13)"  >
<path style="stroke: none; stroke-width: 1; stroke-dasharray: none; stroke-linecap: butt; stroke-dashoffset: 0; stroke-linejoin: miter; stroke-miterlimit: 4; fill: rgb(255,230,228); fill-opacity: 0.88; fill-rule: nonzero; opacity: 1;" vector-effect="non-scaling-stroke"  transform=" translate(-50, -37.87)" d="M 78.954 13.423 L 21.042 13.423 C 19.004 13.423 17.340000000000003 15.087 17.340000000000003 17.127 L 17.340000000000003 58.616 C 17.340000000000003 60.653 19.004000000000005 62.317 21.042 62.317 L 78.95400000000001 62.317 C 80.995 62.317 82.659 60.653 82.659 58.616 L 82.659 17.126 C 82.659 15.087 80.995 13.423 78.954 13.423 z M 76.273 51.637 C 76.273 53.033 75.145 54.159 73.747 54.159 L 26.249 54.159 C 24.855 54.159 23.727 53.033 23.727 51.637 L 23.727 23.245 C 23.727 21.849 24.855 20.721 26.249 20.721 L 73.747 20.721 C 75.145 20.721 76.273 21.849 76.273 23.245 L 76.273 51.637 z" stroke-linecap="round" />
</g>
		<g transform="matrix(1 0 0 1 0 26.32)"  >
<path style="stroke: none; stroke-width: 1; stroke-dasharray: none; stroke-linecap: butt; stroke-dashoffset: 0; stroke-linejoin: miter; stroke-miterlimit: 4; fill: rgb(255,230,228); fill-opacity: 0.88; fill-rule: nonzero; opacity: 1;" vector-effect="non-scaling-stroke"  transform=" translate(-50, -76.33)" d="M 80.726 66.074 L 19.271 66.074 C 18.146 66.074 17.34 66.931 17.34 68.007 L 17.34 84.646 C 17.34 85.666 18.146 86.577 19.271 86.577 L 80.726 86.577 C 81.854 86.577 82.66 85.666 82.66 84.646 L 82.66 68.007 C 82.659 66.932 81.854 66.074 80.726 66.074 z M 75.09 75.092 L 59.203 75.092 C 58.293000000000006 75.092 57.594 74.395 57.594 73.482 C 57.594 72.569 58.293 71.872 59.203 71.872 L 75.09 71.872 C 76.003 71.872 76.754 72.569 76.754 73.482 C 76.754 74.395 76.003 75.092 75.09 75.092 z" stroke-linecap="round" />
</g>
</g>
</g>
<g transform="matrix(1 0 0 1 732.32 493.03)"  >
<path style="stroke: rgb(228,220,234); stroke-width: 7.5; stroke-dasharray: none; stroke-linecap: round; stroke-dashoffset: 0; stroke-linejoin: round; stroke-miterlimit: 10; fill: none; fill-rule: nonzero; opacity: 1;" vector-effect="non-scaling-stroke"  transform=" translate(-732.33, -493.03)" d="M 588.8144178082191 540.3773630136986 Q 588.8219178082192 540.3698630136986 588.8219178082192 538.8904109589041 Q 588.8219178082192 537.4109589041095 600.6575342465753 530.013698630137 Q 612.4931506849315 522.6164383561644 655.3972602739725 507.82191780821915 Q 698.3013698630136 493.027397260274 717.5342465753424 488.58904109589037 Q 736.7671232876712 484.1506849315068 766.3561643835617 481.19178082191775 Q 795.945205479452 478.23287671232873 813.6986301369863 478.23287671232873 Q 831.4520547945204 478.23287671232873 838.8493150684931 478.23287671232873 Q 846.2465753424657 478.23287671232873 852.1643835616437 478.23287671232873 Q 858.0821917808219 478.23287671232873 859.5616438356165 478.23287671232873 Q 861.0410958904109 478.23287671232873 862.5205479452054 478.23287671232873 Q 864 478.23287671232873 865.4794520547945 478.23287671232873 Q 866.958904109589 478.23287671232873 868.4383561643835 478.23287671232873 Q 869.917808219178 478.23287671232873 871.3972602739725 478.23287671232873 Q 872.8767123287671 478.23287671232873 871.3972602739725 479.71232876712327 Q 869.917808219178 481.1917808219178 868.4383561643835 482.67123287671234 Q 866.958904109589 484.1506849315068 865.4794520547945 484.1506849315068 Q 864 484.1506849315068 862.5205479452054 485.63013698630135 Q 861.0410958904109 487.1095890410959 859.5616438356165 487.1095890410959 Q 858.0821917808219 487.1095890410959 856.6027397260273 488.58904109589037 Q 855.1232876712328 490.0684931506849 853.6438356164383 490.0684931506849 Q 852.1643835616438 490.0684931506849 850.6849315068494 491.54794520547944 Q 849.2054794520548 493.027397260274 847.7260273972602 493.027397260274 Q 846.2465753424657 493.027397260274 846.2465753424657 494.5068493150685 Q 846.2465753424657 495.986301369863 844.7671232876712 495.986301369863 Q 843.2876712328766 495.986301369863 843.2876712328766 497.46575342465746 Q 843.2876712328766 498.945205479452 841.8082191780821 498.945205479452 Q 840.3287671232877 498.945205479452 838.8493150684931 500.42465753424653 Q 837.3698630136986 501.90410958904107 835.8904109589041 501.90410958904107 Q 834.4109589041095 501.90410958904107 832.9315068493149 501.90410958904107 Q 831.4520547945204 501.90410958904107 831.4520547945204 500.42465753424653 Q 831.4520547945204 498.945205479452 832.9315068493149 495.986301369863 Q 834.4109589041095 493.027397260274 834.4109589041095 491.54794520547944 Q 834.4109589041095 490.0684931506849 835.8904109589041 490.0684931506849 Q 837.3698630136986 490.0684931506849 838.8493150684931 488.58904109589037 Q 840.3287671232877 487.1095890410959 841.8082191780821 484.1506849315068 Q 843.2876712328766 481.1917808219178 843.2876712328766 479.71232876712327 Q 843.2876712328766 478.23287671232873 844.7671232876712 476.7534246575342 Q 846.2465753424657 475.2739726027397 846.2465753424657 473.7945205479452 Q 846.2465753424657 472.31506849315065 847.7260273972602 470.83561643835617 Q 849.2054794520548 469.35616438356163 850.6849315068494 467.8767123287671 Q 852.1643835616438 466.39726027397256 852.1643835616438 464.917808219178 Q 852.1643835616438 463.43835616438355 852.1643835616438 461.958904109589 Q 852.1643835616438 460.4794520547945 853.6438356164383 459 Q 855.1232876712328 457.52054794520546 855.1232876712328 456.04109589041093 Q 855.1232876712328 454.5616438356164 855.1232876712328 453.08219178082186 Q 855.1232876712328 451.6027397260274 855.1232876712328 450.12328767123284 Q 855.1232876712328 448.6438356164383 855.1232876712328 447.16438356164383 Q 855.1232876712328 445.6849315068493 856.6027397260273 445.6849315068493 Q 858.0821917808219 445.6849315068493 859.5616438356165 445.6849315068493 Q 861.0410958904109 445.6849315068493 862.5205479452054 445.6849315068493 Q 864 445.6849315068493 864 447.16438356164383 Q 864 448.6438356164383 865.4794520547945 450.12328767123284 Q 866.958904109589 451.6027397260274 866.958904109589 453.08219178082186 Q 866.958904109589 454.5616438356164 868.4383561643835 457.5205479452054 Q 869.917808219178 460.4794520547945 871.3972602739725 461.958904109589 Q 872.8767123287671 463.43835616438355 872.8767123287671 464.917808219178 Q 872.8767123287671 466.39726027397256 872.8767123287671 467.8767123287671 Q 872.8767123287671 469.35616438356163 874.3561643835617 470.83561643835617 Q 875.8356164383562 472.31506849315065 875.8356164383562 473.7945205479452 Q 875.8356164383562 475.2739726027397 875.8356164383562 476.7534246575342 L 875.8356164383562 478.2403767123287" stroke-linecap="round" />
</g>
<g transform="matrix(1 0 0 1 699.78 716.43)"  >
<path style="stroke: rgb(228,220,234); stroke-width: 8.8; stroke-dasharray: none; stroke-linecap: round; stroke-dashoffset: 0; stroke-linejoin: round; stroke-miterlimit: 10; fill: none; fill-rule: nonzero; opacity: 1;" vector-effect="non-scaling-stroke"  transform=" translate(-699.78, -716.42)" d="M 603.6076383561644 623.2191780821918 Q 603.6164383561644 623.2191780821918 606.5753424657535 623.2191780821918 Q 609.5342465753424 623.2191780821918 618.4109589041095 623.2191780821918 Q 627.2876712328767 623.2191780821918 642.0821917808219 630.6164383561643 Q 656.8767123287671 638.0136986301369 661.3150684931506 645.4109589041095 Q 665.7534246575342 652.8082191780821 673.1506849315068 672.0410958904109 Q 680.5479452054794 691.2739726027397 684.986301369863 711.986301369863 Q 689.4246575342465 732.6986301369863 690.9041095890411 743.0547945205478 Q 692.3835616438356 753.4109589041095 693.8630136986301 769.6849315068492 Q 695.3424657534246 785.958904109589 698.3013698630136 790.3972602739725 Q 701.2602739726027 794.8356164383562 702.7397260273972 796.3150684931506 Q 704.2191780821918 797.7945205479451 705.6986301369863 797.7945205479451 Q 707.1780821917807 797.7945205479451 710.1369863013698 797.7945205479451 Q 713.0958904109589 797.7945205479451 717.5342465753424 796.3150684931506 Q 721.972602739726 794.8356164383562 730.8493150684931 793.3561643835617 Q 739.7260273972603 791.8767123287671 744.1643835616438 790.3972602739725 Q 748.6027397260274 788.917808219178 750.0821917808219 787.4383561643835 Q 751.5616438356165 785.958904109589 754.5205479452054 785.958904109589 Q 757.4794520547945 785.958904109589 758.958904109589 785.958904109589 Q 760.4383561643835 785.958904109589 761.917808219178 785.958904109589 Q 763.3972602739725 785.958904109589 764.8767123287671 785.958904109589 Q 766.3561643835616 785.958904109589 767.835616438356 785.958904109589 Q 769.3150684931506 785.958904109589 770.7945205479452 785.958904109589 Q 772.2739726027397 785.958904109589 773.7534246575342 785.958904109589 Q 775.2328767123287 785.958904109589 775.2328767123287 784.4794520547945 Q 775.2328767123287 783 775.2328767123287 781.5205479452054 Q 775.2328767123287 780.0410958904109 775.2328767123287 778.5616438356165 Q 775.2328767123287 777.0821917808219 776.7123287671232 777.0821917808219 Q 778.1917808219177 777.0821917808219 779.6712328767123 777.0821917808219 Q 781.1506849315068 777.0821917808219 782.6301369863013 777.0821917808219 Q 784.1095890410959 777.0821917808219 785.5890410958904 777.0821917808219 Q 787.0684931506848 777.0821917808219 787.0684931506848 775.6027397260273 Q 787.0684931506848 774.1232876712328 788.5479452054794 774.1232876712328 Q 790.0273972602739 774.1232876712328 791.5068493150684 774.1232876712328 Q 792.986301369863 774.1232876712328 792.986301369863 772.6438356164383 Q 792.986301369863 771.1643835616438 791.5068493150684 771.1643835616438 Q 790.0273972602739 771.1643835616438 788.5479452054794 771.1643835616438 Q 787.0684931506848 771.1643835616438 785.5890410958904 771.1643835616438 Q 784.1095890410959 771.1643835616438 782.6301369863013 771.1643835616438 Q 781.1506849315068 771.1643835616438 779.6712328767123 771.1643835616438 Q 778.1917808219177 771.1643835616438 776.7123287671232 771.1643835616438 Q 775.2328767123287 771.1643835616438 773.7534246575342 771.1643835616438 Q 772.2739726027397 771.1643835616438 770.7945205479452 771.1643835616438 Q 769.3150684931506 771.1643835616438 767.835616438356 771.1643835616438 Q 766.3561643835616 771.1643835616438 764.8767123287671 771.1643835616438 Q 763.3972602739725 771.1643835616438 761.917808219178 771.1643835616438 Q 760.4383561643835 771.1643835616438 758.958904109589 771.1643835616438 Q 757.4794520547945 771.1643835616438 756 771.1643835616438 Q 754.5205479452054 771.1643835616438 756 771.1643835616438 Q 757.4794520547945 771.1643835616438 757.4794520547945 772.6438356164383 Q 757.4794520547945 774.1232876712328 758.958904109589 775.6027397260273 Q 760.4383561643835 777.0821917808219 760.4383561643835 778.5616438356165 Q 760.4383561643835 780.0410958904109 761.917808219178 781.5205479452054 Q 763.3972602739725 783 763.3972602739725 784.4794520547945 Q 763.3972602739725 785.958904109589 764.8767123287671 787.4383561643835 Q 766.3561643835616 788.917808219178 767.835616438356 790.3972602739725 Q 769.3150684931506 791.8767123287671 770.7945205479452 791.8767123287671 Q 772.2739726027397 791.8767123287671 772.2739726027397 793.3561643835617 Q 772.2739726027397 794.8356164383562 773.7534246575342 796.3150684931506 Q 775.2328767123287 797.7945205479451 776.7123287671232 797.7945205479451 Q 778.1917808219177 797.7945205479451 779.6712328767123 799.2739726027396 Q 781.1506849315068 800.7534246575342 781.1506849315068 802.2328767123288 Q 781.1506849315068 803.7123287671233 781.1506849315068 805.1917808219177 Q 781.1506849315068 806.6712328767123 782.6301369863013 808.1506849315068 Q 784.1095890410959 809.6301369863013 785.5890410958904 809.6301369863013 Q 787.0684931506848 809.6301369863013 788.5479452054794 809.6301369863013 Q 790.0273972602739 809.6301369863013 791.5068493150684 809.6301369863013 Q 792.986301369863 809.6301369863013 794.4657534246576 809.6301369863013 Q 795.945205479452 809.6301369863013 795.945205479452 808.1506849315068 Q 795.945205479452 806.6712328767123 795.945205479452 805.1917808219177 Q 795.945205479452 803.7123287671233 795.945205479452 802.2328767123288 Q 795.945205479452 800.7534246575342 795.945205479452 799.2739726027396 Q 795.945205479452 797.7945205479451 795.945205479452 796.3150684931506 Q 795.945205479452 794.8356164383562 795.945205479452 793.3561643835617 Q 795.945205479452 791.8767123287671 795.945205479452 790.3972602739725 Q 795.945205479452 788.917808219178 795.945205479452 787.4383561643835 Q 795.945205479452 785.958904109589 795.945205479452 784.4794520547945 Q 795.945205479452 783 795.945205479452 781.5205479452054 Q 795.945205479452 780.0410958904109 795.945205479452 778.5616438356165 Q 795.945205479452 777.0821917808219 795.945205479452 775.6027397260273 L 795.945205479452 774.1144876712328" stroke-linecap="round" />
</g>
<g transform="matrix(1 0 0 1 689.42 308.28)"  >
<path style="stroke: rgb(228,220,234); stroke-width: 8.8; stroke-dasharray: none; stroke-linecap: round; stroke-dashoffset: 0; stroke-linejoin: round; stroke-miterlimit: 10; fill: none; fill-rule: nonzero; opacity: 1;" vector-effect="non-scaling-stroke"  transform=" translate(-689.42, -308.29)" d="M 597.6898301369863 401.3101698630137 Q 597.6986301369863 401.3013698630137 600.6575342465753 399.82191780821915 Q 603.6164383561644 398.3424657534246 609.5342465753424 392.42465753424653 Q 615.4520547945206 386.50684931506845 643.5616438356165 362.83561643835617 Q 671.6712328767123 339.16438356164383 696.8219178082192 312.5342465753424 Q 721.972602739726 285.90410958904107 730.8493150684931 275.54794520547944 Q 739.7260273972603 265.1917808219178 748.6027397260274 251.8767123287671 Q 757.4794520547945 238.56164383561642 761.917808219178 234.12328767123284 Q 766.3561643835616 229.6849315068493 766.3561643835616 228.20547945205476 Q 766.3561643835616 226.72602739726025 767.835616438356 225.24657534246575 Q 769.3150684931506 223.7671232876712 769.3150684931506 222.28767123287668 Q 769.3150684931506 220.80821917808217 769.3150684931506 219.32876712328766 Q 769.3150684931506 217.84931506849313 769.3150684931506 216.3698630136986 Q 769.3150684931506 214.89041095890408 769.3150684931506 216.3698630136986 Q 769.3150684931506 217.84931506849313 767.835616438356 219.32876712328766 Q 766.3561643835616 220.80821917808217 764.8767123287671 220.80821917808217 Q 763.3972602739725 220.80821917808217 761.917808219178 222.28767123287668 Q 760.4383561643835 223.7671232876712 758.958904109589 223.7671232876712 Q 757.4794520547945 223.7671232876712 756 223.7671232876712 Q 754.5205479452054 223.7671232876712 753.0410958904109 225.24657534246575 Q 751.5616438356165 226.72602739726025 750.0821917808219 226.72602739726025 Q 748.6027397260274 226.72602739726025 747.1232876712329 226.72602739726025 Q 745.6438356164383 226.72602739726025 742.6849315068494 228.20547945205476 Q 739.7260273972603 229.6849315068493 738.2465753424658 229.6849315068493 Q 736.7671232876712 229.6849315068493 735.2876712328766 229.6849315068493 Q 733.8082191780821 229.6849315068493 732.3287671232877 229.6849315068493 Q 730.8493150684931 229.6849315068493 729.3698630136986 229.6849315068493 Q 727.8904109589041 229.6849315068493 729.3698630136986 229.6849315068493 Q 730.8493150684931 229.6849315068493 732.3287671232877 229.6849315068493 Q 733.8082191780821 229.6849315068493 735.2876712328766 229.6849315068493 Q 736.7671232876712 229.6849315068493 738.2465753424658 229.6849315068493 Q 739.7260273972603 229.6849315068493 741.2054794520548 229.6849315068493 Q 742.6849315068492 229.6849315068493 744.1643835616437 229.6849315068493 Q 745.6438356164383 229.6849315068493 747.1232876712329 231.16438356164383 Q 748.6027397260274 232.64383561643834 750.0821917808219 232.64383561643834 Q 751.5616438356165 232.64383561643834 753.0410958904109 232.64383561643834 Q 754.5205479452054 232.64383561643834 756 234.12328767123284 Q 757.4794520547945 235.60273972602738 758.958904109589 235.60273972602738 Q 760.4383561643835 235.60273972602738 761.917808219178 237.08219178082192 Q 763.3972602739725 238.56164383561642 764.8767123287671 238.56164383561642 Q 766.3561643835616 238.56164383561642 767.835616438356 238.56164383561642 Q 769.3150684931506 238.56164383561642 769.3150684931506 240.04109589041093 Q 769.3150684931506 241.52054794520546 770.7945205479452 243 Q 772.2739726027397 244.4794520547945 773.7534246575342 244.4794520547945 Q 775.2328767123287 244.4794520547945 776.7123287671232 244.4794520547945 Q 778.1917808219177 244.4794520547945 778.1917808219177 245.958904109589 Q 778.1917808219177 247.43835616438355 779.6712328767123 247.43835616438355 Q 781.1506849315068 247.43835616438355 781.1506849315068 245.958904109589 Q 781.1506849315068 244.4794520547945 781.1506849315068 243 Q 781.1506849315068 241.52054794520546 781.1506849315068 240.04109589041093 Q 781.1506849315068 238.56164383561642 781.1506849315068 237.08219178082192 Q 781.1506849315068 235.60273972602738 781.1506849315068 234.12328767123284 Q 781.1506849315068 232.64383561643834 781.1506849315068 231.16438356164383 Q 781.1506849315068 229.6849315068493 781.1506849315068 228.20547945205476 Q 781.1506849315068 226.72602739726025 781.1506849315068 225.24657534246575 L 781.1506849315068 223.7583232876712" stroke-linecap="round" />
</g>
</svg>